<svg id="Layer_8" data-name="Layer 8" xmlns="http://www.w3.org/2000/svg" xmlns:xlink="http://www.w3.org/1999/xlink" viewBox="0 0 265.61 263.83"><defs><style>.cls-1{fill:url(#White_Black);}.cls-2{fill:#fff;}.cls-3{mask:url(#mask);}.cls-4{mask:url(#mask-2);}</style><linearGradient id="White_Black" x1="133.17" y1="306.35" x2="133.17" y2="38.95" gradientUnits="userSpaceOnUse"><stop offset="0" stop-color="#fff"/><stop offset="1" stop-color="#231f20"/></linearGradient><mask id="mask" x="18.57" y="16.67" width="229.2" height="229.2" maskUnits="userSpaceOnUse"><polygon class="cls-1" points="18.57 73.97 21.76 16.67 75.88 16.67 247.78 188.57 247.78 245.87 190.47 245.87 18.57 73.97"/></mask><mask id="mask-2" x="18.57" y="16.67" width="229.2" height="229.2" maskUnits="userSpaceOnUse"><polygon class="cls-1" points="247.78 73.97 244.59 16.67 190.47 16.67 18.57 188.57 18.57 245.87 75.88 245.87 247.78 73.97"/></mask></defs><polygon class="cls-2" points="18.57 73.97 21.76 16.67 75.88 16.67 247.78 188.57 247.78 245.87 190.47 245.87 18.57 73.97"/><polygon class="cls-2" points="247.78 73.97 244.59 16.67 190.47 16.67 18.57 188.57 18.57 245.87 75.88 245.87 247.78 73.97"/><g class="cls-3"><polygon class="cls-2" points="18.57 73.97 21.76 16.67 75.88 16.67 247.78 188.57 247.78 245.87 190.47 245.87 18.57 73.97"/></g><g class="cls-4"><polygon class="cls-2" points="247.78 73.97 244.59 16.67 190.47 16.67 18.57 188.57 18.57 245.87 75.88 245.87 247.78 73.97"/></g><rect x="92.66" y="90.75" width="81.03" height="81.03" transform="translate(-53.82 132.62) rotate(-45)"/><path class="cls-2" d="M18.57,250.65a4.78,4.78,0,0,1-4.77-4.78V16.67a4.78,4.78,0,0,1,9.55,0v229.2A4.78,4.78,0,0,1,18.57,250.65Z"/><path class="cls-2" d="M247.77,250.65a4.78,4.78,0,0,1-4.77-4.78V16.67a4.78,4.78,0,0,1,9.55,0v229.2A4.78,4.78,0,0,1,247.77,250.65Z"/></svg>