<svg id="Layer_1" data-name="Layer 1" xmlns="http://www.w3.org/2000/svg" viewBox="0 0 159.29 161.95"><defs><style>.cls-1{fill:#f5f5f4;}</style></defs><path class="cls-1" d="M153.81,150.22a1.15,1.15,0,0,1-1,1.75h0c-19.55,0-39.08,0-58.62.1a3.16,3.16,0,0,1-3.08-1.76Q76.82,127.38,62.4,104.5c-.24-.38-.48-.75-.75-1.15a1.15,1.15,0,0,0-1.91,0c-.13.19-.26.37-.38.56Q44.27,127.1,29.22,150.34a3.2,3.2,0,0,1-3.1,1.73c-6.87-.08-13.73,0-20.6,0H5.41a1.15,1.15,0,0,1-1-1.77l.33-.51Q26.36,117.51,48,85.29a3,3,0,0,0,0-3.9Q26,46.26,4,11.07l-.13-.21a1.16,1.16,0,0,1,1-1.76h.07c19.48,0,39,0,58.44,0a3.31,3.31,0,0,1,3.21,1.84q12.7,20.46,25.54,40.83c.15.24.3.48.47.73a1.15,1.15,0,0,0,1.9,0,6,6,0,0,0,.36-.52Q108,31.38,121.16,10.75a3.18,3.18,0,0,1,3.11-1.68c6.77.07,13.53,0,20.6,0a1.16,1.16,0,0,1,1,1.77l-.15.23Q126,41.07,106.32,71a2.77,2.77,0,0,0,0,3.58Q130,112.11,153.5,149.7C153.6,149.87,153.71,150,153.81,150.22Z"/></svg>