<svg id="Layer_8" data-name="Layer 8" xmlns="http://www.w3.org/2000/svg" xmlns:xlink="http://www.w3.org/1999/xlink" viewBox="0 0 334 102.82"><defs><style>.xLogoCls-1{fill:url(#White_Black);}.xLogoCls-2{fill:#e9ba1f;}.xLogoCls-3{fill:#fff;}.xLogoCls-4{mask:url(#mask);}.xLogoCls-5{fill:#e99823;}.xLogoCls-6{mask:url(#mask-2);}.xLogoCls-7{fill:#e77f24;}</style><linearGradient id="White_Black" x1="43.25" y1="106.18" x2="43.25" y2="22.18" gradientUnits="userSpaceOnUse"><stop offset="0" stop-color="#fff"/><stop offset="1" stop-color="#231f20"/></linearGradient><mask id="mask" x="7.25" y="15.18" width="72" height="72" maskUnits="userSpaceOnUse"><polygon class="xLogoCls-1" points="7.25 33.18 8.25 15.18 25.25 15.18 79.25 69.18 79.25 87.18 61.25 87.18 7.25 33.18"/></mask><mask id="mask-2" x="7.25" y="15.18" width="72" height="72" maskUnits="userSpaceOnUse"><polygon class="xLogoCls-1" points="79.25 33.18 78.25 15.18 61.25 15.18 7.25 69.18 7.25 87.18 25.25 87.18 79.25 33.18"/></mask></defs><polygon class="xLogoCls-2" points="313 83.63 261.37 23.38 263.13 22.31 260.45 22.31 246.35 22.31 245.01 22.31 248.69 25.04 299.81 84.68 298.37 85.74 300.72 85.74 314.81 85.74 316.49 85.74 313 83.63"/><polygon class="xLogoCls-2" points="321.03 7.31 327.25 4.86 323.07 4.86 307.51 4.86 308.71 5.44 236.74 91.52 229.22 95.14 236.98 95.14 247.84 95.14 248.96 95.14 248.12 94.81 321.03 7.31"/><path class="xLogoCls-3" d="M146.54,54q0-12.37-6.08-20.29-6.81-8.76-19.18-8.77H99.55L97,21.46v68l3.41-4.62h20.8q15.44,0,21.75-13.63A40.33,40.33,0,0,0,146.54,54ZM132.91,67.16a14.89,14.89,0,0,1-7.75,6.12,22.51,22.51,0,0,1-6.78.86H109V35.71h10.6c6.56,0,10,2.06,13,6.17S134.52,64.74,132.91,67.16Z"/><polygon class="xLogoCls-3" points="229.93 24.93 173.68 24.93 177.49 35.88 195.15 35.88 195.15 84.88 208.47 84.88 208.47 35.88 226.13 35.88 229.93 24.93"/><polygon class="xLogoCls-3" points="241.53 24.93 232.35 24.93 209.78 84.88 222.88 84.88 222.9 84.82 227.95 84.82 223.54 82.8 236.59 41.44 250.58 84.88 263.28 84.88 241.53 24.93"/><polygon class="xLogoCls-3" points="162.63 24.93 140.06 84.88 153.16 84.88 153.18 84.82 158.23 84.82 153.82 82.8 166.87 41.44 180.28 83.07 176.82 84.82 180.84 84.82 180.86 84.88 193.56 84.88 171.81 24.93 162.63 24.93"/><polygon class="xLogoCls-2" points="7.25 33.18 8.25 15.18 25.25 15.18 79.25 69.18 79.25 87.18 61.25 87.18 7.25 33.18"/><polygon class="xLogoCls-2" points="79.25 33.18 78.25 15.18 61.25 15.18 7.25 69.18 7.25 87.18 25.25 87.18 79.25 33.18"/><g class="xLogoCls-4"><polygon class="xLogoCls-5" points="7.25 33.18 8.25 15.18 25.25 15.18 79.25 69.18 79.25 87.18 61.25 87.18 7.25 33.18"/></g><g class="xLogoCls-6"><polygon class="xLogoCls-5" points="79.25 33.18 78.25 15.18 61.25 15.18 7.25 69.18 7.25 87.18 25.25 87.18 79.25 33.18"/></g><rect class="xLogoCls-7" x="30.52" y="38.45" width="25.46" height="25.46" transform="translate(-23.52 45.57) rotate(-45)"/><path class="xLogoCls-3" d="M7.25,88.68a1.5,1.5,0,0,1-1.5-1.5v-72a1.5,1.5,0,0,1,3,0v72A1.5,1.5,0,0,1,7.25,88.68Z"/><path class="xLogoCls-3" d="M79.25,88.68a1.5,1.5,0,0,1-1.5-1.5v-72a1.5,1.5,0,0,1,3,0v72A1.5,1.5,0,0,1,79.25,88.68Z"/></svg>