<svg id="Layer_8" data-name="Layer 8" xmlns="http://www.w3.org/2000/svg" xmlns:xlink="http://www.w3.org/1999/xlink" viewBox="0 0 207 205.44"><defs><style>.cls-1{fill:url(#White_Black);}.cls-2{fill:#e9ba1f;}.cls-3{mask:url(#mask);}.cls-4{fill:#e99823;}.cls-5{mask:url(#mask-2);}.cls-6{fill:#e77f24;}.cls-7{fill:#fff;}</style><linearGradient id="White_Black" x1="104.25" y1="250.52" x2="104.25" y2="29.32" gradientUnits="userSpaceOnUse"><stop offset="0" stop-color="#fff"/><stop offset="1" stop-color="#231f20"/></linearGradient><mask id="mask" x="9.45" y="10.89" width="189.6" height="189.6" maskUnits="userSpaceOnUse"><polygon class="cls-1" points="9.45 58.29 12.08 10.89 56.85 10.89 199.05 153.09 199.05 200.49 151.65 200.49 9.45 58.29"/></mask><mask id="mask-2" x="9.45" y="10.89" width="189.6" height="189.6" maskUnits="userSpaceOnUse"><polygon class="cls-1" points="199.05 58.29 196.42 10.89 151.65 10.89 9.45 153.09 9.45 200.49 56.85 200.49 199.05 58.29"/></mask></defs><polygon class="cls-2" points="9.45 58.29 12.08 10.89 56.85 10.89 199.05 153.09 199.05 200.49 151.65 200.49 9.45 58.29"/><polygon class="cls-2" points="199.05 58.29 196.42 10.89 151.65 10.89 9.45 153.09 9.45 200.49 56.85 200.49 199.05 58.29"/><g class="cls-3"><polygon class="cls-4" points="9.45 58.29 12.08 10.89 56.85 10.89 199.05 153.09 199.05 200.49 151.65 200.49 9.45 58.29"/></g><g class="cls-5"><polygon class="cls-4" points="199.05 58.29 196.42 10.89 151.65 10.89 9.45 153.09 9.45 200.49 56.85 200.49 199.05 58.29"/></g><rect class="cls-6" x="70.73" y="72.17" width="67.03" height="67.03" transform="translate(-44.2 104.67) rotate(-45)"/><path class="cls-7" d="M9.45,204.44a4,4,0,0,1-3.95-3.95V10.89a3.95,3.95,0,0,1,7.9,0v189.6A4,4,0,0,1,9.45,204.44Z"/><path class="cls-7" d="M199.05,204.44a4,4,0,0,1-4-3.95V10.89a4,4,0,1,1,7.9,0v189.6A4,4,0,0,1,199.05,204.44Z"/></svg>