<svg id="svg" version="1.1" xmlns="http://www.w3.org/2000/svg" xmlns:xlink="http://www.w3.org/1999/xlink" width="400" height="163.68876080691643" viewBox="0, 0, 400,163.68876080691643"><g id="svgg"><path id="path0" d="M13.375 68.542 L 13.417 115.750 31.917 115.796 C 52.024 115.845,51.121 115.873,51.197 115.208 L 51.250 114.750 56.417 114.667 L 61.583 114.583 61.635 114.047 L 61.687 113.511 63.385 113.464 L 65.083 113.417 65.135 112.880 L 65.187 112.343 67.385 112.296 L 69.583 112.250 69.635 111.716 L 69.687 111.181 70.802 111.132 L 71.917 111.083 71.969 110.542 L 72.021 110.000 72.977 110.000 C 73.957 110.000,74.333 109.812,74.333 109.322 C 74.333 109.104,74.557 109.018,75.352 108.928 C 76.276 108.823,76.387 108.768,76.552 108.331 C 76.690 107.966,76.857 107.837,77.242 107.800 C 77.679 107.757,77.757 107.675,77.801 107.218 C 77.846 106.755,77.922 106.680,78.385 106.635 C 78.845 106.590,78.923 106.513,78.967 106.064 C 79.016 105.566,79.055 105.541,79.921 105.452 C 81.026 105.337,81.167 105.257,81.167 104.740 C 81.167 104.406,81.250 104.333,81.633 104.333 C 82.200 104.333,82.500 104.062,82.500 103.550 C 82.500 103.235,82.589 103.167,83.000 103.167 C 83.460 103.167,83.500 103.120,83.500 102.583 C 83.500 102.028,83.528 102.000,84.083 102.000 C 84.637 102.000,84.667 101.971,84.667 101.427 C 84.667 100.903,84.712 100.850,85.208 100.802 C 85.685 100.756,85.756 100.685,85.802 100.208 C 85.844 99.774,85.928 99.667,86.227 99.667 C 86.815 99.667,87.000 99.340,87.000 98.300 L 87.000 97.333 87.583 97.333 C 88.139 97.333,88.167 97.306,88.167 96.750 C 88.167 96.194,88.194 96.167,88.750 96.167 C 89.306 96.167,89.333 96.139,89.333 95.583 C 89.333 95.086,89.390 95.000,89.717 95.000 C 90.315 95.000,90.500 94.678,90.500 93.633 C 90.500 92.680,90.506 92.667,90.979 92.667 C 91.496 92.667,91.667 92.272,91.667 91.076 C 91.667 90.606,91.736 90.511,92.146 90.421 C 92.639 90.313,92.827 89.827,92.831 88.646 C 92.833 88.298,92.932 88.189,93.310 88.113 C 93.890 87.997,93.995 87.539,93.998 85.125 L 94.000 83.500 94.482 83.500 C 95.100 83.500,95.167 83.305,95.167 81.497 L 95.167 80.022 95.624 79.969 C 96.297 79.892,96.292 79.967,96.311 68.417 C 96.330 56.947,96.347 57.233,95.656 57.081 L 95.178 56.976 95.131 55.363 L 95.083 53.750 94.542 53.698 L 94.000 53.646 94.000 51.645 C 94.000 49.458,93.869 49.000,93.244 49.000 C 92.862 49.000,92.833 48.942,92.833 48.156 C 92.833 47.109,92.611 46.667,92.085 46.667 C 91.708 46.667,91.679 46.602,91.633 45.625 C 91.585 44.609,91.570 44.579,91.042 44.424 C 90.547 44.278,90.500 44.206,90.498 43.591 C 90.494 42.457,90.355 42.167,89.814 42.167 C 89.376 42.167,89.333 42.115,89.333 41.583 C 89.333 41.028,89.306 41.000,88.750 41.000 L 88.167 41.000 88.167 40.033 C 88.167 38.989,87.982 38.667,87.383 38.667 C 87.056 38.667,87.000 38.581,87.000 38.083 C 87.000 37.528,86.972 37.500,86.417 37.500 C 85.861 37.500,85.833 37.472,85.833 36.917 C 85.833 36.361,85.806 36.333,85.250 36.333 C 84.694 36.333,84.667 36.306,84.667 35.750 C 84.667 35.194,84.639 35.167,84.083 35.167 C 83.528 35.167,83.500 35.139,83.500 34.583 C 83.500 34.049,83.459 34.000,83.011 34.000 C 82.580 34.000,82.515 33.935,82.469 33.458 C 82.424 32.990,82.348 32.910,81.907 32.867 C 81.496 32.827,81.367 32.714,81.241 32.284 C 81.112 31.846,80.987 31.741,80.552 31.699 C 80.114 31.656,80.011 31.568,79.968 31.199 C 79.921 30.785,79.836 30.738,78.883 30.597 C 77.890 30.450,77.848 30.424,77.800 29.930 C 77.757 29.485,77.678 29.410,77.208 29.364 C 76.738 29.319,76.667 29.250,76.667 28.845 C 76.667 28.346,76.207 28.173,74.875 28.169 C 74.385 28.167,74.333 28.119,74.333 27.667 L 74.333 27.167 73.167 27.167 L 72.000 27.167 72.000 26.583 L 72.000 26.000 70.833 26.000 L 69.667 26.000 69.667 25.417 L 69.667 24.833 68.511 24.833 L 67.354 24.833 67.302 24.292 L 67.250 23.750 65.052 23.704 L 62.854 23.657 62.802 23.120 L 62.750 22.583 59.292 22.538 L 55.833 22.493 55.833 21.913 L 55.833 21.333 34.583 21.333 L 13.333 21.333 13.375 68.542 M183.470 28.287 C 182.947 28.342,182.840 28.425,182.748 28.843 C 182.676 29.170,182.538 29.333,182.332 29.333 C 181.683 29.333,181.500 29.774,181.500 31.334 L 181.500 32.811 181.042 32.864 C 180.460 32.931,180.369 33.505,180.348 37.208 L 180.333 39.833 179.833 39.833 L 179.333 39.833 179.333 42.656 L 179.333 45.479 178.792 45.531 L 178.250 45.583 178.203 47.287 L 178.155 48.991 175.869 49.037 L 173.583 49.083 173.531 49.621 L 173.479 50.159 170.615 50.204 L 167.750 50.250 167.750 55.333 L 167.750 60.417 168.282 60.468 C 168.745 60.513,168.820 60.588,168.865 61.051 L 168.917 61.583 172.958 61.628 L 177.000 61.673 177.000 81.253 L 177.000 100.833 177.583 100.833 L 178.167 100.833 178.167 103.659 L 178.167 106.485 178.750 106.594 L 179.333 106.704 179.333 107.755 C 179.333 108.779,179.346 108.810,179.814 108.912 C 180.177 108.992,180.319 109.139,180.393 109.509 C 180.476 109.920,180.572 110.000,180.985 110.000 C 181.420 110.000,181.485 110.064,181.531 110.542 C 181.577 111.018,181.649 111.090,182.125 111.136 C 182.621 111.183,182.667 111.236,182.667 111.761 C 182.667 112.304,182.696 112.333,183.250 112.333 C 183.806 112.333,183.833 112.361,183.833 112.917 C 183.833 113.469,183.864 113.500,184.399 113.500 C 184.876 113.500,184.982 113.571,185.078 113.957 C 185.240 114.602,185.404 114.661,187.031 114.664 L 188.479 114.667 188.531 115.208 L 188.583 115.750 196.500 115.750 L 204.417 115.750 204.575 115.214 L 204.732 114.678 206.325 114.631 L 207.917 114.583 207.969 114.042 L 208.021 113.500 209.177 113.500 L 210.333 113.500 210.333 112.917 C 210.333 112.361,210.361 112.333,210.917 112.333 C 211.471 112.333,211.500 112.304,211.500 111.758 L 211.500 111.182 212.625 111.133 L 213.750 111.083 213.798 109.458 L 213.845 107.833 213.264 107.833 L 212.682 107.833 212.633 106.708 L 212.583 105.583 212.042 105.531 L 211.500 105.479 211.500 104.523 C 211.500 103.493,211.314 103.167,210.727 103.167 C 210.428 103.167,210.344 103.059,210.302 102.625 C 210.256 102.151,210.184 102.077,209.716 102.032 C 209.185 101.980,209.182 101.974,209.133 100.958 C 209.071 99.682,208.951 99.637,205.791 99.703 L 203.583 99.750 203.532 100.284 L 203.480 100.819 202.365 100.868 L 201.250 100.917 201.198 101.458 L 201.146 102.000 200.000 102.000 L 198.854 102.000 198.802 101.458 L 198.750 100.917 197.633 100.868 L 196.516 100.818 196.466 99.784 C 196.417 98.751,196.416 98.750,195.875 98.698 L 195.333 98.646 195.333 80.156 L 195.333 61.667 203.417 61.667 L 211.500 61.667 211.500 55.333 L 211.500 49.000 203.417 49.000 L 195.333 49.000 195.333 38.690 L 195.333 28.380 194.458 28.275 C 193.543 28.165,184.534 28.175,183.470 28.287 M56.000 37.982 C 56.000 38.595,56.200 38.667,57.909 38.667 L 59.292 38.667 59.387 39.145 C 59.493 39.675,59.834 39.827,60.922 39.831 C 61.514 39.833,61.616 39.892,61.782 40.333 C 61.963 40.813,62.013 40.833,62.975 40.833 L 63.979 40.833 64.031 41.375 L 64.083 41.917 65.208 41.966 L 66.333 42.015 66.333 42.591 C 66.333 43.138,66.363 43.167,66.917 43.167 C 67.472 43.167,67.500 43.194,67.500 43.750 C 67.500 44.306,67.528 44.333,68.083 44.333 C 68.639 44.333,68.667 44.361,68.667 44.917 C 68.667 45.452,68.707 45.500,69.159 45.500 C 69.590 45.500,69.665 45.573,69.761 46.083 C 69.855 46.583,69.936 46.667,70.332 46.667 C 70.778 46.667,70.799 46.706,70.909 47.739 C 71.018 48.754,71.051 48.818,71.512 48.919 C 71.836 48.990,72.000 49.130,72.000 49.333 C 72.000 49.926,72.197 50.167,72.684 50.167 C 73.166 50.167,73.167 50.168,73.167 51.232 C 73.167 52.342,73.272 52.500,74.014 52.500 C 74.300 52.500,74.333 52.629,74.333 53.739 C 74.333 55.306,74.520 55.833,75.073 55.833 C 75.485 55.833,75.489 55.845,75.536 57.542 L 75.583 59.250 76.125 59.302 L 76.667 59.354 76.667 68.011 L 76.667 76.667 76.256 76.667 C 75.630 76.667,75.500 77.125,75.500 79.322 L 75.500 81.333 75.018 81.333 C 74.440 81.333,74.333 81.555,74.333 82.764 C 74.333 83.618,74.311 83.667,73.913 83.667 C 73.353 83.667,73.167 84.188,73.167 85.750 L 73.167 86.979 72.625 87.031 C 72.149 87.077,72.077 87.149,72.031 87.625 C 71.986 88.096,71.917 88.167,71.508 88.167 C 71.105 88.167,71.022 88.248,70.931 88.730 C 70.846 89.187,70.732 89.312,70.330 89.392 C 69.923 89.474,69.833 89.575,69.831 89.954 C 69.826 91.217,69.646 91.667,69.145 91.667 C 68.709 91.667,68.667 91.719,68.667 92.250 C 68.667 92.806,68.639 92.833,68.083 92.833 C 67.528 92.833,67.500 92.861,67.500 93.417 L 67.500 94.000 66.434 94.000 C 65.324 94.000,65.167 94.105,65.167 94.847 C 65.167 95.101,65.047 95.167,64.583 95.167 C 64.051 95.167,64.000 95.209,64.000 95.650 C 64.000 96.126,63.982 96.135,62.833 96.250 C 61.684 96.365,61.667 96.374,61.667 96.850 C 61.667 97.326,61.652 97.333,60.708 97.343 C 58.971 97.360,58.424 97.524,58.364 98.044 C 58.311 98.499,58.309 98.500,56.947 98.502 C 55.096 98.505,54.833 98.590,54.833 99.186 L 54.833 99.667 43.833 99.667 L 32.833 99.667 32.833 68.583 L 32.833 37.500 44.417 37.500 L 56.000 37.500 56.000 37.982 M131.036 46.864 C 130.925 46.975,130.833 47.239,130.833 47.450 L 130.833 47.833 127.417 47.833 L 124.000 47.833 124.000 48.412 L 124.000 48.991 121.708 49.037 L 119.417 49.083 119.365 49.618 L 119.313 50.152 118.198 50.201 L 117.083 50.250 117.032 50.784 L 116.980 51.319 115.865 51.368 L 114.750 51.417 114.698 51.958 L 114.646 52.500 113.580 52.500 L 112.515 52.500 112.406 53.083 C 112.313 53.578,112.228 53.667,111.849 53.667 C 111.489 53.667,111.371 53.772,111.243 54.208 C 111.090 54.727,111.041 54.753,110.083 54.833 C 109.097 54.916,109.083 54.924,109.031 55.458 C 108.983 55.954,108.930 56.000,108.406 56.000 C 107.883 56.000,107.833 56.042,107.833 56.492 C 107.833 56.924,107.761 56.998,107.243 57.096 L 106.652 57.207 106.701 58.228 C 106.750 59.248,106.751 59.250,107.292 59.302 L 107.833 59.354 107.833 60.511 L 107.833 61.667 108.417 61.667 L 109.000 61.667 109.000 62.732 C 109.000 63.839,109.106 64.000,109.836 64.000 C 110.063 64.000,110.159 64.144,110.198 64.542 C 110.241 64.991,110.327 65.092,110.703 65.136 C 111.070 65.178,111.176 65.294,111.261 65.751 C 111.352 66.234,111.442 66.322,111.892 66.366 C 112.320 66.407,112.426 66.498,112.468 66.858 C 112.535 67.440,112.791 67.495,115.445 67.498 C 118.004 67.500,118.167 67.460,118.167 66.823 C 118.167 66.353,118.178 66.348,119.292 66.299 L 120.417 66.250 120.469 65.708 L 120.521 65.167 121.477 65.167 C 122.512 65.167,122.833 64.981,122.833 64.383 C 122.833 64.035,122.909 64.000,123.653 64.000 C 124.775 64.000,125.000 63.886,125.000 63.316 L 125.000 62.833 126.167 62.833 L 127.333 62.833 127.333 62.250 L 127.333 61.667 131.989 61.667 L 136.646 61.667 136.698 62.208 C 136.750 62.749,136.752 62.750,137.775 62.799 C 138.798 62.848,138.799 62.849,138.907 63.424 C 139.001 63.927,139.078 64.000,139.508 64.000 C 139.882 64.000,140.000 64.077,140.000 64.320 C 140.000 64.926,140.194 65.167,140.684 65.167 C 141.161 65.167,141.167 65.178,141.167 66.133 C 141.167 67.178,141.351 67.500,141.950 67.500 L 142.333 67.500 142.333 71.500 L 142.333 75.500 141.851 75.500 C 141.361 75.500,141.167 75.740,141.167 76.347 C 141.167 76.656,140.967 76.667,134.934 76.667 C 128.213 76.667,128.500 76.629,128.500 77.514 C 128.500 77.813,128.357 77.833,126.250 77.833 L 124.000 77.833 124.000 78.417 L 124.000 79.000 122.250 79.000 L 120.500 79.000 120.500 79.583 L 120.500 80.167 118.750 80.167 L 117.000 80.167 117.000 80.742 L 117.000 81.318 115.875 81.367 C 114.798 81.415,114.748 81.435,114.699 81.857 C 114.651 82.267,114.577 82.304,113.567 82.412 C 112.547 82.521,112.481 82.555,112.391 83.005 C 112.319 83.365,112.188 83.494,111.856 83.532 C 111.527 83.571,111.378 83.715,111.263 84.106 C 111.119 84.592,111.039 84.638,110.096 84.772 C 109.157 84.906,109.080 84.950,109.031 85.375 C 108.994 85.691,108.882 85.833,108.669 85.833 C 107.940 85.833,107.833 85.994,107.833 87.101 L 107.833 88.167 107.250 88.167 C 106.694 88.167,106.667 88.194,106.667 88.750 C 106.667 89.306,106.639 89.333,106.083 89.333 L 105.500 89.333 105.500 90.489 L 105.500 91.646 104.958 91.698 L 104.417 91.750 104.370 98.167 C 104.318 105.349,104.313 105.290,104.959 105.364 C 105.399 105.415,105.419 105.457,105.467 106.496 C 105.520 107.614,105.651 107.826,106.292 107.831 C 106.629 107.833,106.667 107.915,106.667 108.653 C 106.667 109.769,106.782 110.000,107.341 110.000 C 107.751 110.000,107.819 110.070,107.864 110.542 C 107.910 111.018,107.982 111.090,108.458 111.136 C 108.954 111.183,109.000 111.236,109.000 111.761 L 109.000 112.333 110.065 112.333 L 111.130 112.333 111.239 112.917 C 111.334 113.425,111.411 113.500,111.836 113.500 C 112.246 113.500,112.346 113.586,112.464 114.042 L 112.604 114.583 114.208 114.631 L 115.813 114.678 115.865 115.214 L 115.917 115.750 124.406 115.793 C 133.433 115.839,133.158 115.863,133.164 115.048 C 133.167 114.696,133.241 114.677,134.792 114.631 L 136.417 114.583 136.574 114.049 C 136.727 113.531,136.764 113.513,137.741 113.465 C 138.746 113.417,138.750 113.415,138.802 112.875 C 138.850 112.379,138.903 112.333,139.427 112.333 C 139.971 112.333,140.000 112.304,140.000 111.750 L 140.000 111.167 141.167 111.167 L 142.333 111.167 142.333 110.583 C 142.333 110.028,142.361 110.000,142.917 110.000 C 143.454 110.000,143.500 109.960,143.500 109.500 C 143.500 109.040,143.546 109.000,144.083 109.000 C 144.620 109.000,144.667 109.040,144.667 109.500 C 144.667 109.959,144.714 110.000,145.244 110.000 L 145.822 110.000 145.869 111.708 L 145.917 113.417 146.449 113.468 C 146.912 113.513,146.987 113.588,147.032 114.051 L 147.083 114.583 148.782 114.631 L 150.480 114.678 150.532 115.214 L 150.583 115.750 155.083 115.750 L 159.583 115.750 159.626 90.198 C 159.670 63.372,159.687 64.000,158.911 64.000 C 158.505 64.000,158.500 63.982,158.500 62.512 C 158.500 60.932,158.319 60.500,157.655 60.500 C 157.371 60.500,157.333 60.376,157.333 59.424 L 157.333 58.348 156.759 58.241 C 156.265 58.148,156.178 58.060,156.134 57.608 C 156.090 57.151,156.014 57.077,155.542 57.031 L 155.000 56.979 155.000 55.906 L 155.000 54.833 154.417 54.833 C 153.861 54.833,153.833 54.806,153.833 54.250 C 153.833 53.694,153.806 53.667,153.250 53.667 C 152.694 53.667,152.667 53.639,152.667 53.083 C 152.667 52.530,152.637 52.500,152.094 52.500 C 151.570 52.500,151.517 52.454,151.469 51.958 C 151.417 51.417,151.415 51.417,150.385 51.367 C 149.358 51.318,149.353 51.316,149.302 50.784 L 149.250 50.250 148.135 50.201 L 147.020 50.152 146.968 49.618 L 146.917 49.083 145.802 49.034 L 144.687 48.985 144.635 48.451 L 144.583 47.917 141.719 47.871 L 138.854 47.826 138.802 47.288 L 138.750 46.750 134.995 46.705 C 132.214 46.672,131.187 46.713,131.036 46.864 M246.458 46.845 C 246.298 46.939,246.167 47.199,246.167 47.422 L 246.167 47.827 242.708 47.872 L 239.250 47.917 239.198 48.454 L 239.146 48.990 236.948 49.037 L 234.750 49.083 234.698 49.618 L 234.647 50.152 233.532 50.201 L 232.417 50.250 232.365 50.784 L 232.313 51.319 231.198 51.368 L 230.083 51.417 230.032 51.951 L 229.980 52.485 228.865 52.534 L 227.750 52.583 227.698 53.125 C 227.650 53.621,227.597 53.667,227.073 53.667 C 226.529 53.667,226.500 53.696,226.500 54.250 C 226.500 54.806,226.472 54.833,225.917 54.833 C 225.386 54.833,225.333 54.876,225.333 55.310 C 225.333 55.768,225.292 55.793,224.293 55.935 C 223.310 56.075,223.247 56.111,223.166 56.582 C 223.098 56.978,222.978 57.098,222.582 57.166 C 221.790 57.302,221.713 59.118,222.492 59.273 C 222.956 59.366,223.001 59.434,223.017 60.063 C 223.044 61.203,223.210 61.577,223.715 61.636 C 224.080 61.679,224.167 61.774,224.169 62.136 C 224.173 63.326,224.356 63.796,224.852 63.895 C 225.251 63.975,225.333 64.075,225.333 64.478 C 225.333 64.970,225.572 65.167,226.170 65.167 C 226.397 65.167,226.493 65.311,226.531 65.708 C 226.577 66.180,226.651 66.257,227.106 66.301 C 227.528 66.342,227.647 66.442,227.722 66.819 C 227.836 67.389,228.411 67.500,231.240 67.500 C 233.215 67.500,233.500 67.401,233.500 66.717 C 233.500 66.356,233.564 66.333,234.583 66.333 L 235.667 66.333 235.667 65.758 L 235.667 65.182 236.792 65.133 L 237.917 65.083 237.968 64.549 L 238.020 64.015 239.135 63.966 L 240.250 63.917 240.302 63.375 L 240.354 62.833 241.636 62.831 C 243.344 62.828,243.610 62.741,243.729 62.149 L 243.826 61.661 247.871 61.705 L 251.917 61.750 251.968 62.191 C 252.025 62.688,252.350 62.827,253.458 62.831 C 254.128 62.833,254.167 62.860,254.167 63.316 C 254.167 63.806,254.407 64.000,255.014 64.000 C 255.255 64.000,255.333 64.118,255.333 64.482 C 255.333 64.970,255.574 65.167,256.172 65.167 C 256.438 65.167,256.491 65.320,256.534 66.208 C 256.582 67.224,256.597 67.254,257.125 67.409 L 257.667 67.569 257.667 70.368 L 257.667 73.167 258.250 73.167 L 258.833 73.167 258.833 74.326 L 258.833 75.485 257.708 75.534 L 256.583 75.583 256.531 76.125 L 256.479 76.667 250.356 76.667 C 243.880 76.667,243.833 76.672,243.833 77.445 C 243.833 77.818,243.800 77.825,241.542 77.870 L 239.250 77.917 239.198 78.458 L 239.146 79.000 237.497 79.000 L 235.848 79.000 235.739 79.583 L 235.630 80.167 233.981 80.167 L 232.333 80.167 232.333 80.750 L 232.333 81.333 231.167 81.333 L 230.000 81.333 230.000 81.816 C 230.000 82.292,229.982 82.301,228.833 82.417 C 227.684 82.532,227.667 82.541,227.667 83.017 C 227.667 83.382,227.589 83.500,227.347 83.500 C 226.749 83.500,226.500 83.695,226.500 84.165 C 226.500 84.611,226.461 84.632,225.427 84.743 C 224.420 84.851,224.350 84.886,224.302 85.304 C 224.262 85.642,224.121 85.788,223.718 85.907 C 223.211 86.056,223.181 86.113,223.074 87.115 C 222.965 88.133,222.946 88.167,222.488 88.167 C 222.081 88.167,222.000 88.247,221.907 88.741 C 221.821 89.204,221.715 89.324,221.358 89.366 C 220.935 89.415,220.915 89.463,220.867 90.542 C 220.822 91.574,220.788 91.667,220.451 91.669 C 219.646 91.675,219.660 91.556,219.706 98.094 L 219.750 104.250 220.292 104.302 L 220.833 104.354 220.833 105.997 L 220.833 107.640 221.320 107.747 C 221.774 107.847,221.816 107.925,221.945 108.885 C 222.080 109.889,222.097 109.918,222.615 109.968 C 223.078 110.013,223.154 110.089,223.199 110.551 C 223.242 110.995,223.332 111.096,223.749 111.167 C 224.145 111.235,224.265 111.355,224.333 111.751 C 224.416 112.236,224.448 112.251,225.459 112.300 L 226.500 112.349 226.500 112.925 C 226.500 113.471,226.529 113.500,227.083 113.500 C 227.548 113.500,227.667 113.565,227.667 113.821 C 227.667 114.485,228.098 114.667,229.679 114.667 L 231.167 114.667 231.167 115.250 L 231.167 115.833 239.750 115.833 L 248.333 115.833 248.333 115.256 L 248.333 114.678 250.042 114.631 L 251.750 114.583 251.802 114.049 L 251.853 113.515 252.968 113.466 L 254.083 113.417 254.135 112.883 C 254.186 112.351,254.191 112.349,255.218 112.299 C 256.220 112.251,256.255 112.234,256.407 111.716 C 256.534 111.286,256.663 111.173,257.074 111.133 C 257.514 111.090,257.590 111.010,257.636 110.542 C 257.683 110.046,257.736 110.000,258.261 110.000 C 258.781 110.000,258.833 109.956,258.833 109.518 C 258.833 109.092,258.900 109.029,259.417 108.968 C 259.979 108.903,260.000 108.920,260.000 109.450 C 260.000 109.967,260.035 110.000,260.583 110.000 L 261.167 110.000 261.167 111.649 C 261.167 113.388,261.218 113.500,262.014 113.500 C 262.268 113.500,262.333 113.619,262.333 114.083 L 262.333 114.667 263.966 114.667 L 265.598 114.667 265.757 115.208 L 265.917 115.750 270.769 115.794 C 274.718 115.830,275.657 115.796,275.811 115.610 C 275.952 115.441,275.990 109.731,275.959 93.732 L 275.917 72.083 275.458 72.031 L 275.000 71.978 275.000 68.253 C 275.000 64.068,274.989 64.000,274.316 64.000 L 273.833 64.000 273.831 62.625 C 273.828 60.762,273.744 60.500,273.147 60.500 C 272.673 60.500,272.667 60.488,272.667 59.533 C 272.667 58.489,272.482 58.167,271.883 58.167 C 271.548 58.167,271.500 58.084,271.500 57.511 C 271.500 56.516,271.249 56.000,270.765 56.000 C 270.424 56.000,270.346 55.909,270.302 55.458 C 270.256 54.982,270.185 54.910,269.708 54.864 C 269.212 54.817,269.167 54.764,269.167 54.239 C 269.167 53.698,269.135 53.667,268.594 53.667 C 268.070 53.667,268.017 53.621,267.969 53.125 C 267.923 52.651,267.850 52.577,267.385 52.532 C 266.922 52.487,266.846 52.412,266.801 51.949 L 266.750 51.417 265.625 51.367 L 264.500 51.318 264.500 50.742 C 264.500 50.196,264.471 50.167,263.917 50.167 C 263.419 50.167,263.333 50.110,263.333 49.783 C 263.333 49.129,263.029 49.000,261.485 49.000 L 260.037 49.000 259.928 48.417 L 259.818 47.833 257.003 47.833 L 254.188 47.833 254.136 47.292 L 254.083 46.750 250.417 46.712 C 248.130 46.688,246.640 46.738,246.458 46.845 M258.833 92.167 L 258.833 96.333 258.250 96.333 C 257.715 96.333,257.667 96.374,257.667 96.826 C 257.667 97.257,257.594 97.332,257.083 97.428 C 256.577 97.523,256.500 97.600,256.500 98.019 C 256.500 98.382,256.422 98.500,256.180 98.500 C 255.578 98.500,255.333 98.695,255.333 99.174 C 255.333 99.584,255.263 99.652,254.792 99.698 C 254.317 99.744,254.244 99.816,254.198 100.284 C 254.147 100.816,254.142 100.818,253.115 100.867 C 252.110 100.915,252.079 100.931,251.924 101.458 C 251.766 101.995,251.755 102.000,250.716 102.000 C 249.793 102.000,249.667 102.038,249.667 102.320 C 249.667 103.191,249.805 103.167,244.909 103.167 L 240.354 103.167 240.302 102.625 L 240.250 102.083 239.133 102.034 L 238.016 101.985 237.966 100.961 C 237.918 99.960,237.904 99.933,237.375 99.797 L 236.833 99.657 236.833 96.839 L 236.833 94.021 237.375 93.969 C 237.849 93.923,237.923 93.850,237.968 93.385 C 238.013 92.922,238.088 92.846,238.551 92.801 C 239.017 92.756,239.090 92.682,239.136 92.208 C 239.180 91.745,239.253 91.666,239.636 91.665 C 240.837 91.660,241.348 91.468,241.445 90.984 C 241.535 90.532,241.580 90.513,242.644 90.466 L 243.750 90.417 243.802 89.875 L 243.854 89.333 246.094 89.333 L 248.333 89.333 248.333 88.752 L 248.333 88.171 253.542 88.125 C 256.406 88.099,258.769 88.061,258.792 88.039 C 258.815 88.018,258.833 89.875,258.833 92.167 M142.333 92.726 L 142.333 97.285 141.792 97.440 C 141.374 97.558,141.238 97.698,141.197 98.047 C 141.154 98.421,141.062 98.500,140.673 98.500 C 140.195 98.500,140.000 98.745,140.000 99.347 C 140.000 99.590,139.882 99.667,139.508 99.667 C 139.078 99.667,139.001 99.740,138.907 100.242 C 138.799 100.818,138.798 100.818,137.775 100.867 C 136.752 100.917,136.750 100.918,136.698 101.458 L 136.646 102.000 135.489 102.000 L 134.333 102.000 134.333 102.583 L 134.333 103.167 129.677 103.167 L 125.021 103.167 124.969 102.625 C 124.917 102.084,124.915 102.083,123.885 102.034 C 122.858 101.985,122.853 101.982,122.802 101.451 C 122.757 100.984,122.682 100.910,122.214 100.865 L 121.678 100.813 121.631 99.198 L 121.583 97.583 121.042 97.424 C 120.575 97.287,120.500 97.190,120.500 96.726 C 120.500 96.241,120.553 96.183,121.042 96.136 C 121.582 96.083,121.583 96.081,121.632 95.061 C 121.680 94.075,121.699 94.035,122.178 93.939 C 122.554 93.864,122.696 93.727,122.768 93.367 C 122.838 93.016,122.999 92.854,123.390 92.739 C 123.784 92.622,123.929 92.473,123.967 92.147 C 124.013 91.751,124.099 91.703,124.921 91.618 C 126.024 91.504,126.167 91.424,126.167 90.914 C 126.167 90.538,126.230 90.512,127.292 90.466 L 128.417 90.417 128.469 89.880 L 128.520 89.343 130.802 89.296 L 133.083 89.250 133.136 88.708 L 133.188 88.167 137.761 88.167 L 142.333 88.167 142.333 92.726 M295.667 136.580 L 295.667 152.667 298.583 152.667 L 301.500 152.667 301.500 152.083 C 301.500 151.528,301.528 151.500,302.083 151.500 C 302.639 151.500,302.667 151.527,302.667 152.086 L 302.667 152.671 308.375 152.627 L 314.083 152.583 314.136 152.042 L 314.188 151.500 315.253 151.500 L 316.318 151.500 316.428 150.917 C 316.523 150.410,316.600 150.333,317.019 150.333 C 317.438 150.333,317.500 150.272,317.500 149.852 C 317.500 149.434,317.577 149.356,318.083 149.261 L 318.667 149.152 318.667 148.086 L 318.667 147.021 319.208 146.969 L 319.750 146.917 319.750 140.667 L 319.750 134.417 319.208 134.364 C 318.712 134.317,318.667 134.264,318.667 133.739 C 318.667 133.196,318.637 133.167,318.083 133.167 C 317.528 133.167,317.500 133.139,317.500 132.583 C 317.500 132.049,317.459 132.000,317.011 132.000 C 316.580 132.000,316.515 131.935,316.469 131.458 L 316.417 130.917 315.302 130.868 L 314.187 130.819 314.135 130.284 L 314.083 129.750 309.595 129.706 C 304.825 129.658,304.841 129.656,304.836 130.458 C 304.834 130.808,304.762 130.833,303.752 130.833 L 302.671 130.833 302.627 125.708 L 302.583 120.583 299.125 120.538 L 295.667 120.493 295.667 136.580 M353.333 125.065 L 353.333 127.297 352.877 127.412 C 352.271 127.564,352.172 127.755,352.169 128.786 L 352.167 129.655 350.458 129.703 L 348.750 129.750 348.750 132.000 L 348.750 134.250 350.458 134.297 L 352.167 134.345 352.167 142.076 C 352.167 150.510,352.152 150.333,352.851 150.333 C 353.291 150.333,353.333 150.384,353.333 150.917 C 353.333 151.472,353.361 151.500,353.917 151.500 C 354.472 151.500,354.500 151.528,354.500 152.083 L 354.500 152.667 359.667 152.667 L 364.833 152.667 364.833 152.091 L 364.833 151.515 365.958 151.466 L 367.083 151.417 367.083 150.417 L 367.083 149.417 366.549 149.365 L 366.015 149.313 365.966 148.198 L 365.917 147.083 364.208 147.036 L 362.500 146.988 362.500 147.578 L 362.500 148.167 361.344 148.167 L 360.188 148.167 360.136 147.625 C 360.090 147.149,360.018 147.077,359.542 147.031 L 359.000 146.979 359.000 140.659 L 359.000 134.340 362.458 134.295 L 365.917 134.250 365.963 131.958 L 366.009 129.667 362.505 129.667 L 359.000 129.667 359.000 126.250 L 359.000 122.833 356.167 122.833 L 353.333 122.833 353.333 125.065 M330.333 130.248 L 330.333 130.833 328.783 130.833 C 327.133 130.833,326.833 130.954,326.833 131.617 C 326.833 131.944,326.748 132.000,326.250 132.000 C 325.694 132.000,325.667 132.028,325.667 132.583 C 325.667 133.139,325.639 133.167,325.083 133.167 C 324.530 133.167,324.500 133.196,324.500 133.739 C 324.500 134.264,324.454 134.317,323.958 134.364 L 323.417 134.417 323.369 136.038 L 323.321 137.660 322.786 137.799 L 322.250 137.938 322.250 141.261 L 322.250 144.583 322.792 144.636 L 323.333 144.688 323.336 145.969 C 323.339 147.733,323.428 148.000,324.019 148.000 C 324.455 148.000,324.500 148.053,324.500 148.566 C 324.500 149.143,324.710 149.333,325.347 149.333 C 325.591 149.333,325.667 149.452,325.667 149.833 C 325.667 150.294,325.713 150.333,326.250 150.333 C 326.806 150.333,326.833 150.361,326.833 150.917 L 326.833 151.500 328.000 151.500 L 329.167 151.500 329.167 152.083 L 329.167 152.667 335.992 152.667 L 342.818 152.667 342.928 152.083 L 343.037 151.500 344.102 151.500 L 345.167 151.500 345.167 150.917 C 345.167 150.361,345.194 150.333,345.750 150.333 L 346.333 150.333 346.333 148.667 L 346.333 147.000 345.750 147.000 C 345.194 147.000,345.167 146.972,345.167 146.417 L 345.167 145.833 343.500 145.833 L 341.833 145.833 341.833 146.417 L 341.833 147.000 340.667 147.000 L 339.500 147.000 339.500 147.583 L 339.500 148.167 336.000 148.167 L 332.500 148.167 332.500 147.583 C 332.500 147.028,332.472 147.000,331.917 147.000 C 331.361 147.000,331.333 146.972,331.333 146.417 C 331.333 145.885,331.291 145.833,330.853 145.833 C 330.384 145.833,330.369 145.807,330.255 144.743 C 330.145 143.708,330.114 143.648,329.653 143.556 C 329.231 143.471,329.167 143.384,329.167 142.896 L 329.167 142.333 338.146 142.333 C 345.592 142.333,347.159 142.294,347.317 142.103 C 347.448 141.945,347.494 141.058,347.463 139.311 L 347.417 136.750 346.875 136.698 L 346.333 136.646 346.333 135.489 L 346.333 134.333 345.750 134.333 L 345.167 134.333 345.167 133.268 C 345.167 132.054,345.110 132.000,343.830 132.000 C 343.039 132.000,343.020 131.988,342.969 131.458 L 342.917 130.917 341.802 130.868 L 340.687 130.819 340.635 130.284 L 340.583 129.750 335.458 129.706 L 330.333 129.662 330.333 130.248 M374.073 130.248 L 373.963 130.833 372.898 130.833 L 371.833 130.833 371.833 131.417 L 371.833 132.000 370.661 132.000 L 369.488 132.000 369.536 133.708 L 369.583 135.417 370.125 135.469 C 370.601 135.515,370.667 135.580,370.667 136.011 L 370.667 136.500 372.333 136.500 L 374.000 136.500 374.000 136.000 L 374.000 135.500 375.042 135.498 C 376.853 135.495,377.337 135.357,377.446 134.810 L 377.542 134.333 379.250 134.333 L 380.958 134.333 381.056 134.819 C 381.148 135.281,381.208 135.311,382.243 135.422 L 383.333 135.539 383.333 137.186 L 383.333 138.833 379.514 138.833 C 375.229 138.833,375.167 138.843,375.167 139.518 L 375.167 140.000 373.500 140.000 L 371.833 140.000 371.833 140.576 L 371.833 141.151 370.708 141.201 L 369.583 141.250 369.532 141.782 C 369.487 142.245,369.412 142.320,368.949 142.365 L 368.417 142.417 368.372 146.375 L 368.327 150.333 368.914 150.333 C 369.473 150.333,369.500 150.361,369.500 150.917 C 369.500 151.472,369.528 151.500,370.083 151.500 C 370.639 151.500,370.667 151.527,370.667 152.086 L 370.667 152.671 376.375 152.627 L 382.083 152.583 382.136 152.042 L 382.188 151.500 383.247 151.500 C 383.938 151.500,384.335 151.428,384.390 151.292 C 384.436 151.177,384.480 151.440,384.487 151.875 L 384.500 152.667 387.335 152.667 L 390.170 152.667 390.126 143.542 L 390.083 134.417 389.542 134.364 L 389.000 134.312 389.000 133.356 C 389.000 132.322,388.814 132.000,388.217 132.000 C 387.928 132.000,387.833 131.906,387.833 131.617 C 387.833 131.033,387.516 130.833,386.584 130.833 C 385.771 130.833,385.729 130.811,385.576 130.292 L 385.417 129.750 379.800 129.706 L 374.183 129.662 374.073 130.248 M310.698 134.875 C 310.744 135.351,310.815 135.423,311.292 135.469 C 311.768 135.515,311.833 135.580,311.833 136.011 C 311.833 136.459,311.882 136.500,312.417 136.500 L 313.000 136.500 313.000 138.657 C 313.000 140.640,313.028 140.834,313.340 141.053 L 313.680 141.291 313.340 141.380 C 313.020 141.464,313.000 141.594,313.000 143.651 L 313.000 145.833 312.417 145.833 C 311.863 145.833,311.833 145.862,311.833 146.409 L 311.833 146.984 310.792 147.034 C 309.776 147.082,309.746 147.097,309.591 147.625 L 309.431 148.167 307.143 148.167 L 304.854 148.167 304.802 147.625 C 304.750 147.083,304.750 147.083,303.708 147.034 L 302.667 146.984 302.667 141.742 L 302.667 136.500 303.167 136.500 C 303.609 136.500,303.667 136.444,303.667 136.008 C 303.667 135.516,303.668 135.515,304.792 135.466 L 305.917 135.417 305.969 134.875 L 306.021 134.333 308.333 134.333 L 310.646 134.333 310.698 134.875 M338.364 134.875 C 338.410 135.351,338.482 135.423,338.958 135.469 C 339.435 135.515,339.500 135.580,339.500 136.011 C 339.500 136.459,339.549 136.500,340.083 136.500 C 340.639 136.500,340.667 136.528,340.667 137.083 L 340.667 137.667 335.399 137.667 C 330.664 137.667,330.141 137.640,330.232 137.403 C 330.288 137.258,330.333 137.001,330.333 136.831 C 330.333 136.618,330.476 136.506,330.792 136.469 C 331.152 136.428,331.261 136.318,331.303 135.958 C 331.349 135.558,331.427 135.500,331.928 135.500 C 332.471 135.500,332.500 135.470,332.500 134.917 L 332.500 134.333 335.406 134.333 L 338.312 134.333 338.364 134.875 M383.333 145.250 L 383.333 147.000 382.167 147.000 L 381.000 147.000 381.000 147.583 L 381.000 148.167 378.083 148.167 L 375.167 148.167 375.167 147.583 C 375.167 147.028,375.139 147.000,374.583 147.000 C 373.714 147.000,373.675 145.886,374.542 145.802 C 375.018 145.756,375.090 145.685,375.136 145.208 L 375.188 144.667 376.344 144.667 L 377.500 144.667 377.500 144.083 L 377.500 143.500 380.417 143.500 L 383.333 143.500 383.333 145.250 " stroke="none" fill="#fcfcfc" fill-rule="evenodd"></path><path id="path1" d="M280.958 15.680 C 280.262 16.086,280.675 20.000,281.414 20.000 C 281.755 20.000,281.821 20.091,281.865 20.625 C 281.912 21.196,281.964 21.255,282.458 21.302 C 282.993 21.354,283.000 21.366,283.003 22.219 C 283.006 23.234,283.098 23.411,283.698 23.558 C 284.053 23.645,284.156 23.780,284.198 24.209 C 284.244 24.685,284.316 24.756,284.792 24.802 L 285.333 24.854 285.333 25.920 L 285.333 26.985 285.917 27.094 C 286.478 27.200,286.500 27.231,286.500 27.935 C 286.500 28.699,286.916 29.333,287.417 29.333 C 287.591 29.333,287.667 29.509,287.667 29.917 C 287.667 30.472,287.694 30.500,288.250 30.500 L 288.833 30.500 288.833 31.566 C 288.833 32.676,288.939 32.833,289.680 32.833 C 289.935 32.833,290.000 32.953,290.000 33.417 C 290.000 33.947,290.043 34.000,290.476 34.000 C 290.936 34.000,290.956 34.034,291.059 35.014 C 291.185 36.228,291.240 36.333,291.738 36.333 C 292.077 36.333,292.138 36.439,292.239 37.204 C 292.369 38.180,292.561 38.500,293.020 38.500 C 293.252 38.500,293.333 38.621,293.333 38.967 C 293.333 39.533,293.604 39.833,294.117 39.833 C 294.461 39.833,294.500 39.911,294.500 40.594 C 294.500 41.566,294.733 42.000,295.256 42.000 C 295.614 42.000,295.667 42.074,295.667 42.583 C 295.667 43.137,295.696 43.167,296.242 43.167 L 296.818 43.167 296.867 44.292 L 296.917 45.417 297.436 45.467 C 297.934 45.516,297.959 45.555,298.048 46.421 C 298.162 47.523,298.243 47.667,298.750 47.667 C 299.088 47.667,299.154 47.759,299.198 48.292 C 299.245 48.860,299.298 48.921,299.784 48.968 C 300.315 49.020,300.318 49.026,300.367 50.042 C 300.416 51.040,300.429 51.067,300.958 51.203 C 301.418 51.322,301.500 51.418,301.500 51.843 C 301.500 52.161,301.604 52.384,301.784 52.453 C 302.440 52.704,302.667 53.066,302.667 53.860 C 302.667 54.624,302.681 54.647,303.208 54.698 C 303.745 54.750,303.750 54.759,303.801 55.726 C 303.847 56.628,303.887 56.716,304.330 56.883 C 304.683 57.016,304.835 57.208,304.912 57.615 C 305.001 58.092,305.082 58.167,305.508 58.167 C 305.973 58.167,306.001 58.205,306.017 58.875 C 306.044 60.036,306.208 60.410,306.715 60.469 C 307.093 60.514,307.167 60.603,307.167 61.016 C 307.167 61.336,307.269 61.547,307.458 61.614 C 308.078 61.834,308.333 62.212,308.333 62.909 C 308.333 63.677,308.557 64.000,309.087 64.000 C 309.394 64.000,309.462 64.139,309.596 65.042 C 309.739 66.010,309.782 66.087,310.208 66.136 C 310.607 66.182,310.667 66.262,310.667 66.747 C 310.667 67.054,310.760 67.343,310.875 67.390 C 311.042 67.457,311.042 67.476,310.875 67.487 C 310.751 67.495,310.667 67.735,310.667 68.083 C 310.667 68.615,310.624 68.667,310.186 68.667 C 309.642 68.667,309.506 68.956,309.502 70.125 C 309.500 70.711,309.445 70.833,309.180 70.833 C 308.579 70.833,308.333 71.028,308.333 71.505 C 308.333 71.886,308.244 71.993,307.850 72.080 C 307.314 72.197,307.173 72.516,307.169 73.614 C 307.167 74.279,307.141 74.315,306.625 74.364 C 306.151 74.410,306.077 74.483,306.032 74.948 C 305.990 75.386,305.901 75.489,305.532 75.532 C 305.112 75.580,305.074 75.655,304.932 76.708 C 304.786 77.798,304.766 77.833,304.307 77.833 C 303.878 77.833,303.833 77.888,303.833 78.406 C 303.833 78.930,303.788 78.983,303.292 79.031 L 302.750 79.083 302.701 80.208 L 302.651 81.333 302.076 81.333 C 301.531 81.333,301.500 81.364,301.500 81.906 C 301.500 82.430,301.454 82.483,300.958 82.531 C 300.417 82.583,300.417 82.585,300.367 83.615 C 300.318 84.642,300.316 84.647,299.784 84.698 C 299.321 84.743,299.243 84.820,299.199 85.270 C 299.158 85.694,299.050 85.818,298.616 85.942 C 298.099 86.090,298.082 86.125,298.034 87.121 C 297.985 88.141,297.982 88.147,297.451 88.198 C 296.983 88.244,296.910 88.317,296.864 88.792 C 296.823 89.226,296.738 89.333,296.439 89.333 C 295.852 89.333,295.667 89.660,295.667 90.700 L 295.667 91.667 295.083 91.667 C 294.528 91.667,294.500 91.694,294.500 92.250 C 294.500 92.782,294.458 92.833,294.019 92.833 C 293.467 92.833,293.339 93.120,293.336 94.364 C 293.333 95.123,293.318 95.147,292.792 95.198 C 292.315 95.244,292.244 95.315,292.198 95.792 C 292.152 96.262,292.084 96.333,291.676 96.333 C 291.220 96.333,291.202 96.368,291.091 97.407 C 290.983 98.413,290.948 98.483,290.529 98.532 C 290.164 98.574,290.074 98.679,290.032 99.108 C 289.988 99.560,289.902 99.648,289.407 99.741 L 288.833 99.848 288.833 100.924 L 288.833 102.000 288.250 102.000 C 287.696 102.000,287.667 102.029,287.667 102.573 C 287.667 103.097,287.621 103.150,287.125 103.198 L 286.583 103.250 286.534 104.375 L 286.485 105.500 285.909 105.500 C 285.364 105.500,285.333 105.531,285.333 106.073 C 285.333 106.597,285.288 106.650,284.792 106.698 L 284.250 106.750 284.201 107.875 L 284.151 109.000 283.576 109.000 C 283.029 109.000,283.000 109.029,283.000 109.583 C 283.000 110.116,282.958 110.167,282.518 110.167 C 281.949 110.167,281.833 110.392,281.833 111.503 C 281.833 112.294,281.821 112.313,281.292 112.364 L 280.750 112.417 280.750 114.083 L 280.750 115.750 292.792 115.793 L 304.833 115.836 304.833 115.262 C 304.833 114.736,304.879 114.683,305.375 114.636 C 305.865 114.588,305.921 114.526,305.967 113.981 C 306.005 113.530,306.120 113.332,306.429 113.192 C 306.883 112.984,307.167 112.399,307.167 111.666 C 307.167 111.248,307.235 111.181,307.708 111.136 C 308.249 111.083,308.250 111.082,308.299 110.052 C 308.349 109.024,308.351 109.020,308.883 108.968 C 309.345 108.924,309.423 108.847,309.467 108.397 C 309.509 107.972,309.616 107.848,310.051 107.724 C 310.568 107.577,310.585 107.542,310.633 106.546 C 310.682 105.525,310.685 105.520,311.216 105.468 C 311.681 105.423,311.757 105.348,311.801 104.886 C 311.843 104.457,311.943 104.336,312.326 104.252 C 312.852 104.136,312.994 103.811,312.998 102.719 C 313.000 102.054,313.026 102.019,313.542 101.969 C 314.010 101.924,314.090 101.848,314.133 101.408 C 314.171 101.024,314.300 100.856,314.664 100.719 C 315.101 100.554,315.157 100.443,315.260 99.527 C 315.371 98.547,315.389 98.517,315.896 98.467 C 316.349 98.423,316.423 98.346,316.469 97.875 C 316.498 97.577,316.591 97.333,316.677 97.333 C 317.097 97.333,317.500 96.640,317.500 95.917 C 317.500 95.288,317.552 95.167,317.820 95.167 C 318.477 95.167,318.667 94.980,318.667 94.334 C 318.667 93.812,318.734 93.686,319.055 93.605 C 319.496 93.495,319.833 92.876,319.833 92.177 C 319.833 91.768,319.913 91.689,320.417 91.594 L 321.000 91.485 321.000 90.409 L 321.000 89.333 321.583 89.333 C 322.139 89.333,322.167 89.306,322.167 88.750 C 322.167 88.252,322.223 88.167,322.550 88.167 C 322.761 88.167,323.033 88.073,323.154 87.958 C 323.331 87.792,323.390 87.792,323.451 87.958 C 323.493 88.073,323.737 88.167,323.992 88.167 C 324.420 88.167,324.463 88.227,324.542 88.923 C 324.628 89.686,325.037 90.333,325.432 90.333 C 325.560 90.333,325.668 90.587,325.698 90.958 C 325.745 91.529,325.797 91.588,326.292 91.636 C 326.827 91.687,326.833 91.698,326.833 92.561 C 326.833 93.510,327.030 93.833,327.607 93.833 C 327.918 93.833,327.989 93.938,328.032 94.458 C 328.079 95.027,328.132 95.088,328.617 95.135 C 329.149 95.186,329.151 95.191,329.201 96.218 C 329.250 97.240,329.255 97.251,329.771 97.301 C 330.258 97.348,330.298 97.402,330.380 98.132 C 330.449 98.741,330.581 99.007,330.984 99.344 C 331.362 99.659,331.500 99.916,331.500 100.304 C 331.500 100.777,331.551 100.833,331.984 100.833 C 332.452 100.833,332.471 100.866,332.585 101.848 C 332.692 102.773,332.746 102.878,333.185 103.031 C 333.478 103.134,333.667 103.318,333.667 103.503 C 333.667 104.093,333.865 104.333,334.351 104.333 C 334.821 104.333,334.833 104.355,334.836 105.208 C 334.839 106.238,334.929 106.411,335.542 106.561 C 335.902 106.649,336.000 106.770,336.001 107.128 C 336.001 107.689,336.575 108.667,336.904 108.667 C 337.064 108.667,337.164 108.880,337.198 109.292 C 337.245 109.862,337.297 109.921,337.792 109.969 C 338.329 110.021,338.333 110.028,338.333 110.915 C 338.333 111.875,338.607 112.333,339.179 112.333 C 339.435 112.333,339.500 112.452,339.500 112.917 C 339.500 113.472,339.528 113.500,340.083 113.500 L 340.667 113.500 340.667 114.467 C 340.667 114.998,340.757 115.523,340.867 115.633 C 341.020 115.787,346.485 115.833,364.450 115.833 L 387.833 115.833 387.833 113.011 C 387.833 109.954,387.728 109.412,387.086 109.168 C 386.747 109.039,386.667 108.895,386.667 108.421 C 386.667 107.884,386.625 107.833,386.186 107.833 C 385.717 107.833,385.703 107.807,385.589 106.743 C 385.478 105.713,385.446 105.647,384.995 105.557 C 384.608 105.480,384.509 105.364,384.467 104.939 C 384.423 104.484,384.347 104.410,383.875 104.364 C 383.343 104.313,383.333 104.297,383.333 103.478 C 383.333 102.436,383.110 102.000,382.577 102.000 C 382.249 102.000,382.167 101.915,382.167 101.578 C 382.167 100.921,381.733 100.044,381.349 99.921 C 381.087 99.838,381.000 99.673,381.000 99.257 C 381.000 98.691,380.787 98.500,380.153 98.500 C 379.888 98.500,379.833 98.378,379.831 97.792 C 379.827 96.622,379.692 96.333,379.147 96.333 C 378.709 96.333,378.667 96.282,378.667 95.750 C 378.667 95.196,378.638 95.167,378.091 95.167 L 377.515 95.167 377.466 94.042 L 377.417 92.917 376.875 92.864 C 376.435 92.822,376.333 92.740,376.333 92.427 C 376.333 91.471,376.116 90.952,375.641 90.773 C 375.235 90.619,375.167 90.503,375.167 89.963 C 375.167 89.356,375.146 89.333,374.591 89.333 L 374.016 89.333 373.966 88.297 C 373.918 87.286,373.903 87.257,373.375 87.106 C 372.902 86.971,372.833 86.881,372.833 86.393 C 372.833 85.882,372.790 85.833,372.333 85.833 C 371.857 85.833,371.833 85.800,371.831 85.125 C 371.828 84.019,371.688 83.692,371.193 83.634 C 370.837 83.593,370.734 83.474,370.650 83.000 C 370.472 82.000,370.201 81.500,369.837 81.500 C 369.592 81.500,369.500 81.391,369.500 81.097 C 369.500 80.405,369.324 80.167,368.816 80.167 C 368.362 80.167,368.332 80.125,368.317 79.458 C 368.290 78.305,368.125 77.923,367.628 77.865 C 367.267 77.823,367.177 77.716,367.135 77.282 C 367.090 76.817,367.016 76.743,366.542 76.698 L 366.000 76.646 366.000 75.689 C 366.000 74.655,365.814 74.333,365.217 74.333 C 364.904 74.333,364.833 74.243,364.833 73.844 C 364.833 73.098,364.551 72.516,364.087 72.305 C 363.764 72.157,363.667 71.988,363.667 71.574 C 363.667 71.025,363.448 70.833,362.820 70.833 C 362.548 70.833,362.500 70.711,362.500 70.014 C 362.500 68.892,362.386 68.667,361.816 68.667 C 361.376 68.667,361.333 68.616,361.333 68.083 C 361.333 67.529,361.304 67.500,360.758 67.500 L 360.182 67.500 360.133 66.375 L 360.083 65.250 359.542 65.198 C 359.048 65.150,359.000 65.096,359.000 64.584 C 359.000 63.792,358.720 63.149,358.331 63.048 C 358.122 62.993,358.000 62.820,358.000 62.578 C 358.000 61.906,357.820 61.667,357.316 61.667 C 356.591 61.667,356.597 60.662,357.323 60.388 C 357.770 60.220,357.823 60.114,357.928 59.185 C 358.039 58.202,358.059 58.167,358.522 58.167 C 358.957 58.167,359.000 58.115,359.000 57.583 C 359.000 57.118,359.065 57.000,359.321 57.000 C 359.896 57.000,360.167 56.542,360.167 55.571 L 360.167 54.667 360.750 54.667 C 361.300 54.667,361.333 54.635,361.333 54.110 C 361.333 53.677,361.426 53.511,361.753 53.362 C 362.218 53.150,362.500 52.569,362.500 51.822 C 362.500 51.451,362.577 51.333,362.820 51.333 C 363.462 51.333,363.667 51.144,363.667 50.550 C 363.667 50.105,363.746 49.948,364.007 49.880 C 364.426 49.770,364.833 49.018,364.833 48.352 C 364.833 47.912,364.896 47.848,365.375 47.802 C 365.895 47.752,365.919 47.719,365.968 46.949 C 366.021 46.122,366.428 45.500,366.917 45.500 C 367.091 45.500,367.167 45.324,367.167 44.917 C 367.167 44.384,367.209 44.333,367.649 44.333 C 368.227 44.333,368.333 44.111,368.333 42.903 L 368.333 42.000 368.917 42.000 C 369.472 42.000,369.500 41.972,369.500 41.417 C 369.500 40.885,369.543 40.833,369.979 40.833 C 370.497 40.833,370.667 40.439,370.667 39.240 C 370.667 38.739,370.717 38.683,371.208 38.636 C 371.685 38.590,371.760 38.515,371.833 38.007 C 371.898 37.562,372.012 37.408,372.333 37.333 C 372.715 37.244,372.754 37.150,372.800 36.201 L 372.849 35.167 373.425 35.167 C 373.964 35.167,374.000 35.133,374.000 34.618 C 374.000 34.142,374.072 34.048,374.542 33.909 C 375.070 33.754,375.085 33.724,375.133 32.708 L 375.183 31.667 375.758 31.667 C 376.304 31.667,376.333 31.637,376.333 31.083 C 376.333 30.618,376.399 30.500,376.655 30.500 C 377.229 30.500,377.500 30.042,377.500 29.071 L 377.500 28.167 378.083 28.167 C 378.631 28.167,378.667 28.134,378.667 27.620 C 378.667 27.172,378.752 27.041,379.141 26.894 C 379.618 26.714,379.833 26.196,379.833 25.229 C 379.833 24.927,379.924 24.833,380.217 24.833 C 380.726 24.833,381.000 24.534,381.000 23.978 C 381.000 23.662,381.107 23.489,381.349 23.412 C 381.733 23.290,382.167 22.412,382.167 21.755 C 382.167 21.418,382.249 21.333,382.577 21.333 C 383.011 21.333,383.333 20.920,383.333 20.363 C 383.333 20.185,383.521 19.915,383.750 19.765 C 383.979 19.615,384.167 19.382,384.167 19.246 C 384.167 19.111,384.242 19.000,384.333 19.000 C 384.548 19.000,384.551 16.172,384.337 15.833 C 384.200 15.616,382.715 15.577,372.964 15.534 C 360.410 15.478,360.377 15.480,360.302 16.134 C 360.262 16.478,360.123 16.621,359.708 16.743 C 359.196 16.894,359.167 16.945,359.167 17.688 C 359.167 18.773,359.048 19.000,358.482 19.000 C 358.046 19.000,358.000 19.054,358.000 19.559 C 358.000 20.047,357.931 20.138,357.458 20.273 C 356.930 20.424,356.915 20.453,356.867 21.464 L 356.817 22.500 356.242 22.500 C 355.682 22.500,355.667 22.518,355.667 23.167 C 355.667 23.708,355.608 23.833,355.354 23.833 C 354.890 23.833,354.667 24.199,354.555 25.140 C 354.461 25.936,354.427 25.985,353.936 26.033 C 353.423 26.083,353.416 26.095,353.367 27.108 C 353.318 28.132,353.318 28.132,352.742 28.240 C 352.218 28.339,352.167 28.400,352.167 28.924 C 352.167 29.448,352.123 29.500,351.684 29.500 C 351.116 29.500,351.000 29.726,351.000 30.836 C 351.000 31.627,350.988 31.647,350.458 31.698 C 349.985 31.743,349.910 31.817,349.865 32.279 C 349.826 32.690,349.707 32.845,349.333 32.975 C 348.895 33.128,348.842 33.232,348.738 34.155 C 348.629 35.121,348.603 35.167,348.163 35.167 C 347.681 35.167,347.500 35.415,347.500 36.078 C 347.500 36.322,347.378 36.493,347.164 36.549 C 346.794 36.646,346.333 37.586,346.333 38.245 C 346.333 38.602,346.257 38.667,345.833 38.667 C 345.364 38.667,345.333 38.706,345.333 39.313 C 345.333 40.599,345.172 41.000,344.656 41.000 C 344.250 41.000,344.181 40.929,344.136 40.458 C 344.090 39.982,344.018 39.910,343.542 39.864 C 343.015 39.814,343.000 39.790,342.998 39.031 C 342.994 37.801,342.864 37.500,342.335 37.500 C 341.897 37.500,341.871 37.454,341.762 36.488 C 341.658 35.566,341.605 35.461,341.167 35.308 C 340.793 35.178,340.674 35.023,340.635 34.612 C 340.590 34.150,340.515 34.077,340.042 34.031 C 339.504 33.979,339.500 33.972,339.500 33.085 C 339.500 32.125,339.227 31.667,338.655 31.667 C 338.408 31.667,338.333 31.549,338.333 31.161 C 338.333 30.831,338.233 30.620,338.042 30.553 C 337.390 30.322,337.167 29.961,337.167 29.141 L 337.167 28.333 336.583 28.333 C 336.009 28.333,336.000 28.323,335.998 27.625 C 335.994 26.500,335.846 26.161,335.312 26.054 C 334.898 25.971,334.833 25.882,334.833 25.396 C 334.833 24.866,334.800 24.833,334.258 24.833 L 333.682 24.833 333.633 23.708 L 333.583 22.583 333.042 22.531 C 332.568 22.485,332.500 22.418,332.500 22.000 C 332.500 21.268,332.217 20.682,331.762 20.475 C 331.454 20.335,331.338 20.137,331.300 19.686 C 331.258 19.176,331.183 19.076,330.814 19.033 C 330.414 18.986,330.365 18.895,330.230 17.949 C 330.095 17.000,330.048 16.913,329.642 16.866 C 329.289 16.825,329.179 16.703,329.096 16.261 C 329.011 15.808,328.898 15.688,328.475 15.603 C 327.554 15.419,281.278 15.494,280.958 15.680 " stroke="none" fill="#f4c42c" fill-rule="evenodd"></path><path id="path2" d="" stroke="none" fill="#f8e0100" fill-rule="evenodd"></path><path id="path3" d="" stroke="none" fill="#f8e0100" fill-rule="evenodd"></path><path id="path4" d="" stroke="none" fill="#f8e0100" fill-rule="evenodd"></path></g></svg>