<svg version="1.1" viewBox="0.0 0.0 328.9160104986877 134.50656167979002" fill="none" stroke="none" stroke-linecap="square" stroke-miterlimit="10" xmlns:xlink="http://www.w3.org/1999/xlink" xmlns="http://www.w3.org/2000/svg"><clipPath id="p.0"><path d="m0 0l328.91602 0l0 134.50656l-328.91602 0l0 -134.50656z" clip-rule="nonzero"/></clipPath><g clip-path="url(#p.0)"><path fill="#000000" fill-opacity="0.0" d="m0 0l328.91602 0l0 134.50656l-328.91602 0z" fill-rule="evenodd"/><path fill="#000000" fill-opacity="0.0" d="m0 0l324.25198 0l0 142.20473l-324.25198 0z" fill-rule="evenodd"/><path fill="#f3f3f3" d="m78.59375 71.0925q0 7.734375 -2.578125 14.21875q-2.578125 6.46875 -7.25 11.140625q-4.671875 4.671875 -11.25 7.25q-6.5625 2.578125 -14.546875 2.578125l-26.859375 0l0 -70.375l26.859375 0q7.984375 0 14.546875 2.609375q6.578125 2.609375 11.25 7.265625q4.671875 4.640625 7.25 11.109375q2.578125 6.46875 2.578125 14.203125zm-13.390625 0q0 -5.78125 -1.5625 -10.375q-1.546875 -4.609375 -4.421875 -7.796875q-2.875 -3.1875 -6.984375 -4.890625q-4.109375 -1.703125 -9.265625 -1.703125l-13.671875 0l0 49.53125l13.671875 0q5.15625 0 9.265625 -1.703125q4.109375 -1.703125 6.984375 -4.890625q2.875 -3.1875 4.421875 -7.78125q1.5625 -4.59375 1.5625 -10.390625zm62.096573 35.1875l-5.40625 0q-1.703125 0 -2.671875 -0.5q-0.96875 -0.515625 -1.453125 -2.078125l-1.078125 -3.546875q-1.890625 1.703125 -3.71875 3.0q-1.828125 1.28125 -3.78125 2.15625q-1.9375 0.875 -4.125 1.3125q-2.1875 0.4375 -4.875 0.4375q-3.15625 0 -5.84375 -0.84375q-2.671875 -0.859375 -4.59375 -2.5625q-1.921875 -1.703125 -3.0 -4.234375q-1.0625 -2.53125 -1.0625 -5.890625q0 -2.828125 1.484375 -5.578125q1.484375 -2.75 4.9375 -4.953125q3.46875 -2.21875 9.203125 -3.671875q5.75 -1.46875 14.265625 -1.65625l0 -2.921875q0 -5.015625 -2.125 -7.421875q-2.109375 -2.40625 -6.15625 -2.40625q-2.921875 0 -4.875 0.6875q-1.9375 0.671875 -3.375 1.53125q-1.4375 0.84375 -2.65625 1.53125q-1.203125 0.671875 -2.671875 0.671875q-1.21875 0 -2.09375 -0.625q-0.875 -0.640625 -1.40625 -1.5625l-2.1875 -3.84375q8.609375 -7.890625 20.78125 -7.890625q4.375 0 7.796875 1.4375q3.4375 1.4375 5.8125 4.0q2.390625 2.546875 3.625 6.109375q1.25 3.546875 1.25 7.78125l0 31.53125zm-23.359375 -7.5q1.859375 0 3.40625 -0.328125q1.5625 -0.34375 2.9375 -1.015625q1.390625 -0.6875 2.671875 -1.6875q1.296875 -1.0 2.625 -2.359375l0 -8.421875q-5.265625 0.234375 -8.796875 0.90625q-3.515625 0.65625 -5.65625 1.671875q-2.140625 1.015625 -3.046875 2.390625q-0.90625 1.359375 -0.90625 2.96875q0 3.15625 1.875 4.515625q1.875 1.359375 4.890625 1.359375zm51.591934 8.28125q-6.484375 0 -9.984375 -3.671875q-3.5 -3.671875 -3.5 -10.15625l0 -27.875l-5.0625 0q-0.96875 0 -1.6875 -0.625q-0.703125 -0.640625 -0.703125 -1.90625l0 -4.765625l8.03125 -1.328125l2.53125 -13.625q0.203125 -0.96875 0.90625 -1.5q0.703125 -0.53125 1.78125 -0.53125l6.21875 0l0 15.71875l13.140625 0l0 8.5625l-13.140625 0l0 27.046875q0 2.34375 1.171875 3.65625q1.171875 1.3125 3.109375 1.3125q1.125 0 1.875 -0.265625q0.765625 -0.265625 1.3125 -0.5625q0.5625 -0.296875 1.0 -0.5625q0.4375 -0.265625 0.875 -0.265625q0.546875 0 0.875 0.265625q0.34375 0.265625 0.734375 0.8125l3.609375 5.828125q-2.640625 2.203125 -6.046875 3.328125q-3.40625 1.109375 -7.046875 1.109375zm60.384766 -0.78125l-5.40625 0q-1.703125 0 -2.671875 -0.5q-0.96875 -0.515625 -1.453125 -2.078125l-1.078125 -3.546875q-1.890625 1.703125 -3.71875 3.0q-1.828125 1.28125 -3.78125 2.15625q-1.9375 0.875 -4.125 1.3125q-2.1875 0.4375 -4.875 0.4375q-3.15625 0 -5.84375 -0.84375q-2.671875 -0.859375 -4.59375 -2.5625q-1.921875 -1.703125 -3.0 -4.234375q-1.0625 -2.53125 -1.0625 -5.890625q0 -2.828125 1.484375 -5.578125q1.484375 -2.75 4.9375 -4.953125q3.46875 -2.21875 9.203125 -3.671875q5.75 -1.46875 14.265625 -1.65625l0 -2.921875q0 -5.015625 -2.125 -7.421875q-2.109375 -2.40625 -6.15625 -2.40625q-2.921875 0 -4.875 0.6875q-1.9375 0.671875 -3.375 1.53125q-1.4375 0.84375 -2.65625 1.53125q-1.203125 0.671875 -2.671875 0.671875q-1.21875 0 -2.09375 -0.625q-0.875 -0.640625 -1.40625 -1.5625l-2.1875 -3.84375q8.609375 -7.890625 20.78125 -7.890625q4.375 0 7.796875 1.4375q3.4375 1.4375 5.8125 4.0q2.390625 2.546875 3.625 6.109375q1.25 3.546875 1.25 7.78125l0 31.53125zm-23.359375 -7.5q1.859375 0 3.40625 -0.328125q1.5625 -0.34375 2.9375 -1.015625q1.390625 -0.6875 2.671875 -1.6875q1.296875 -1.0 2.625 -2.359375l0 -8.421875q-5.265625 0.234375 -8.796875 0.90625q-3.515625 0.65625 -5.65625 1.671875q-2.140625 1.015625 -3.046875 2.390625q-0.90625 1.359375 -0.90625 2.96875q0 3.15625 1.875 4.515625q1.875 1.359375 4.890625 1.359375z" fill-rule="nonzero"/><path fill="#e5e7eb" d="m246.24333 68.81125l-25.125 -40.265625l37.281265 0l13.1875 21.109375l13.46875 -21.109375l17.984375 0l-22.890625 34.890625l26.84375 42.84375l-37.28125 0.046875l-15.000015 -23.90625l-15.5 23.90625l-18.046875 0l25.078125 -37.515625z" fill-rule="nonzero"/></g></svg>