<svg version="1.1" viewBox="0.0 0.0 477.98687664041995 217.13648293963254" fill="none" stroke="none" stroke-linecap="square" stroke-miterlimit="10" xmlns:xlink="http://www.w3.org/1999/xlink" xmlns="http://www.w3.org/2000/svg"><clipPath id="p.0"><path d="m0 0l477.98688 0l0 217.13649l-477.98688 0l0 -217.13649z" clip-rule="nonzero"/></clipPath><g clip-path="url(#p.0)"><path fill="#000000" fill-opacity="0.0" d="m0 0l477.98688 0l0 217.13649l-477.98688 0z" fill-rule="evenodd"/><path fill="#000000" fill-opacity="0.0" d="m0.0131233595 0l477.98425 0l0 217.13387l-477.98425 0z" fill-rule="evenodd"/><path fill="#ffffff" d="m175.08893 108.451935q0 6.5625 -2.1875 12.0625q-2.1875 5.5 -6.15625 9.46875q-3.96875 3.96875 -9.546875 6.15625q-5.578125 2.1875 -12.359375 2.1875l-22.812508 0l0 -59.765625l22.812508 0q6.78125 0 12.359375 2.21875q5.578125 2.203125 9.546875 6.15625q3.96875 3.953125 6.15625 9.453125q2.1875 5.484375 2.1875 12.0625zm-11.359375 0q0 -4.921875 -1.328125 -8.828125q-1.3125 -3.90625 -3.75 -6.609375q-2.4375 -2.703125 -5.9375 -4.15625q-3.484375 -1.453125 -7.875 -1.453125l-11.609375 0l0 42.078125l11.609375 0q4.390625 0 7.875 -1.4375q3.5 -1.453125 5.9375 -4.15625q2.4375 -2.71875 3.75 -6.625q1.328125 -3.90625 1.328125 -8.8125zm52.73877 29.875l-4.59375 0q-1.4375 0 -2.265625 -0.4375q-0.828125 -0.4375 -1.25 -1.75l-0.90625 -3.015625q-1.609375 1.4375 -3.15625 2.53125q-1.546875 1.09375 -3.203125 1.84375q-1.65625 0.75 -3.515625 1.109375q-1.859375 0.375 -4.140625 0.375q-2.671875 0 -4.953125 -0.71875q-2.265625 -0.71875 -3.90625 -2.15625q-1.625 -1.453125 -2.546875 -3.59375q-0.90625 -2.15625 -0.90625 -5.015625q0 -2.390625 1.265625 -4.71875q1.265625 -2.34375 4.1875 -4.21875q2.9375 -1.890625 7.8125 -3.125q4.875 -1.25 12.109375 -1.40625l0 -2.484375q0 -4.25 -1.796875 -6.296875q-1.796875 -2.046875 -5.21875 -2.046875q-2.484375 0 -4.140625 0.578125q-1.65625 0.578125 -2.875 1.296875q-1.21875 0.71875 -2.25 1.296875q-1.03125 0.578125 -2.265625 0.578125q-1.03125 0 -1.78125 -0.53125q-0.75 -0.53125 -1.203125 -1.328125l-1.859375 -3.265625q7.3125 -6.6875 17.65625 -6.6875q3.71875 0 6.625 1.21875q2.921875 1.21875 4.9375 3.390625q2.03125 2.171875 3.078125 5.1875q1.0625 3.015625 1.0625 6.609375l0 26.78125zm-19.84375 -6.359375q1.578125 0 2.890625 -0.28125q1.328125 -0.296875 2.5 -0.875q1.1875 -0.578125 2.28125 -1.421875q1.09375 -0.859375 2.203125 -2.015625l0 -7.15625q-4.453125 0.21875 -7.453125 0.78125q-3.0 0.546875 -4.828125 1.421875q-1.8125 0.859375 -2.578125 2.015625q-0.765625 1.15625 -0.765625 2.53125q0 2.6875 1.59375 3.84375q1.59375 1.15625 4.15625 1.15625zm43.817474 7.015625q-5.5 0 -8.484375 -3.109375q-2.96875 -3.125 -2.96875 -8.625l0 -23.671875l-4.296875 0q-0.828125 0 -1.4375 -0.53125q-0.59375 -0.546875 -0.59375 -1.625l0 -4.046875l6.828125 -1.125l2.140625 -11.5625q0.171875 -0.828125 0.765625 -1.28125q0.59375 -0.453125 1.515625 -0.453125l5.28125 0l0 13.34375l11.15625 0l0 7.28125l-11.15625 0l0 22.96875q0 1.984375 0.984375 3.109375q1.0 1.109375 2.65625 1.109375q0.953125 0 1.59375 -0.21875q0.640625 -0.234375 1.109375 -0.484375q0.484375 -0.25 0.84375 -0.46875q0.375 -0.234375 0.75 -0.234375q0.453125 0 0.734375 0.234375q0.296875 0.21875 0.625 0.671875l3.0625 4.96875q-2.234375 1.859375 -5.125 2.8125q-2.890625 0.9375 -5.984375 0.9375zm51.284912 -0.65625l-4.59375 0q-1.4375 0 -2.265625 -0.4375q-0.828125 -0.4375 -1.25 -1.75l-0.90625 -3.015625q-1.609375 1.4375 -3.15625 2.53125q-1.546875 1.09375 -3.203125 1.84375q-1.65625 0.75 -3.515625 1.109375q-1.859375 0.375 -4.140625 0.375q-2.671875 0 -4.953125 -0.71875q-2.265625 -0.71875 -3.90625 -2.15625q-1.625 -1.453125 -2.546875 -3.59375q-0.90625 -2.15625 -0.90625 -5.015625q0 -2.390625 1.265625 -4.71875q1.265625 -2.34375 4.1875 -4.21875q2.9375 -1.890625 7.8125 -3.125q4.875 -1.25 12.109375 -1.40625l0 -2.484375q0 -4.25 -1.796875 -6.296875q-1.796875 -2.046875 -5.21875 -2.046875q-2.484375 0 -4.140625 0.578125q-1.65625 0.578125 -2.875 1.296875q-1.21875 0.71875 -2.25 1.296875q-1.03125 0.578125 -2.265625 0.578125q-1.03125 0 -1.78125 -0.53125q-0.75 -0.53125 -1.203125 -1.328125l-1.859375 -3.265625q7.3125 -6.6875 17.65625 -6.6875q3.71875 0 6.625 1.21875q2.921875 1.21875 4.9375 3.390625q2.03125 2.171875 3.078125 5.1875q1.0625 3.015625 1.0625 6.609375l0 26.78125zm-19.84375 -6.359375q1.578125 0 2.890625 -0.28125q1.328125 -0.296875 2.5 -0.875q1.1875 -0.578125 2.28125 -1.421875q1.09375 -0.859375 2.203125 -2.015625l0 -7.15625q-4.453125 0.21875 -7.453125 0.78125q-3.0 0.546875 -4.828125 1.421875q-1.8125 0.859375 -2.578125 2.015625q-0.765625 1.15625 -0.765625 2.53125q0 2.6875 1.59375 3.84375q1.59375 1.15625 4.15625 1.15625z" fill-rule="nonzero"/><path fill="#f3c429" d="m316.6538 107.764435l-20.515625 -32.84375l30.40625 0l10.765625 17.21875l11.0 -17.21875l14.65625 0l-18.65625 28.453125l21.875 34.953125l-30.40625 0.046875l-12.234375 -19.515625l-12.625 19.515625l-14.734375 0l20.46875 -30.609375z" fill-rule="nonzero"/></g></svg>